<?xml version="1.0" encoding="utf-8"?>
<!-- Generator: Adobe Illustrator 19.0.1, SVG Export Plug-In . SVG Version: 6.00 Build 0)  -->
<svg version="1.1" id="Layer_1" xmlns="http://www.w3.org/2000/svg" xmlns:xlink="http://www.w3.org/1999/xlink" x="0px" y="0px"
	 viewBox="0 0 255.118 255.118" enable-background="new 0 0 255.118 255.118" xml:space="preserve">
<rect x="-16.673" y="-11.673" fill="#EE7203" width="283.465" height="283.464"/>
<rect x="-2930.208" y="-72.324" fill="none" width="9.192" height="5.356"/>
<path fill="#FFFFFF" d="M69.889,119.755c-1.969,0-3.726,0.752-5.27,2.253c-1.544,1.502-2.315,3.31-2.315,5.422
	c0,2.112,0.688,3.895,2.065,5.347c1.378,1.453,3.036,2.179,4.974,2.179c2.089,0,3.846-0.665,5.269-2l3.361,5.28
	c-2.606,2.337-5.517,3.505-8.73,3.505c-3.577,0-6.669-1.287-9.275-3.861c-2.607-2.574-3.91-5.792-3.91-9.652
	c0-4.027,1.265-7.509,3.796-10.445c2.531-2.937,5.63-4.406,9.298-4.406c3.487,0,6.502,1.195,9.048,3.585l-3.452,5.027
	C73.325,120.5,71.705,119.755,69.889,119.755z"/>
<path fill="#FFFFFF" d="M76.696,127.584c0-3.812,1.197-7.092,3.588-9.84c2.494-2.919,5.631-4.379,9.41-4.379
	c3.916,0,7.173,1.513,9.773,4.534c2.461,2.884,3.692,6.285,3.692,10.199c0,3.749-1.3,6.954-3.9,9.633
	c-2.599,2.682-5.787,4.021-9.565,4.021c-3.745,0-6.881-1.461-9.41-4.382C77.893,134.625,76.696,131.362,76.696,127.584z
	 M82.545,127.603c0,2.128,0.659,3.942,1.976,5.454c1.386,1.642,3.119,2.468,5.199,2.468c2.079,0,3.863-0.738,5.355-2.212
	c1.49-1.474,2.236-3.238,2.236-5.296c0-2.23-0.711-4.165-2.132-5.812c-1.421-1.646-3.241-2.468-5.459-2.468
	c-2.08,0-3.796,0.789-5.148,2.366C83.22,123.68,82.545,125.513,82.545,127.603z"/>
<path fill="#FFFFFF" d="M121.551,123.697c0-2.659-1.3-3.989-3.898-3.989c-1.559,0-2.901,0.658-4.026,1.97
	c-1.126,1.313-1.689,2.727-1.689,4.242v14.947l-6.765,0.912v-27.794l6.195-0.504v4.041c0.554-1.111,1.816-2.072,3.79-2.88
	c1.801-0.773,3.409-1.162,4.829-1.162c2.631,0,4.692,0.974,6.18,2.925c1.384,1.781,2.079,3.983,2.079,6.607v17.85l-6.694,0.706
	V123.697z"/>
<path fill="#FFFFFF" d="M144.089,119.755c-1.969,0-3.725,0.752-5.27,2.253c-1.543,1.501-2.314,3.309-2.314,5.421
	c0,2.111,0.688,3.896,2.064,5.348c1.379,1.453,3.037,2.179,4.975,2.179c2.09,0,3.846-0.666,5.268-2.001l3.361,5.281
	c-2.607,2.336-5.518,3.505-8.729,3.505c-3.578,0-6.67-1.286-9.277-3.861c-2.607-2.574-3.909-5.792-3.909-9.653
	c0-4.026,1.264-7.508,3.796-10.445c2.531-2.936,5.631-4.405,9.297-4.405c3.488,0,6.506,1.195,9.049,3.585l-3.449,5.028
	C147.526,120.5,145.905,119.755,144.089,119.755z"/>
<path fill="#FFFFFF" d="M164.665,135.379c1.105,0,2.414-0.313,3.924-0.939c1.508-0.626,5.197-2.479,7.545-4.921l-0.063,7.5
	c-1.201,0.992-4.596,3.142-6.461,3.77c-1.867,0.628-3.611,0.941-5.236,0.941c-3.732,0-7.105-1.081-9.592-3.824
	c-2.488-2.745-4.012-5.866-4.139-9.53c-0.139-3.966,1.199-7.427,3.602-10.372c2.529-3.078,5.709-4.616,9.535-4.616
	c2.76,0,5.281,0.841,7.568,2.522c2.287,1.682,3.885,3.843,4.793,6.481l-17.463,10.618
	C160.431,134.588,162.427,135.379,164.665,135.379z M156.665,126.995v0.894l11.459-6.711c-1.32-1.097-2.676-1.645-4.061-1.645
	c-1.936,0-3.643,0.747-5.127,2.239C157.323,123.398,156.566,125.138,156.665,126.995z"/>
<path fill="#FFFFFF" d="M184.005,149.362l-5.809-0.936v-35.238l5.496,0.495v2.766c2.184-2.31,4.625-3.463,7.324-3.463
	c3.518,0,6.461,1.561,8.826,4.684c2.184,2.925,3.275,6.342,3.275,10.255c0,3.583-1.107,6.721-3.322,9.416
	c-2.215,2.694-4.959,4.043-8.238,4.043c-2.91,0-5.43-1.042-7.553-3.131V149.362z M183.505,127.418c0,2.077,0.691,3.866,2.072,5.362
	c1.381,1.499,3.029,2.248,4.941,2.248c1.941,0,3.553-0.824,4.826-2.47c1.186-1.549,1.777-3.392,1.777-5.534
	c0-2.107-0.621-3.96-1.867-5.558c-1.244-1.596-2.824-2.396-4.736-2.396c-2.004,0-3.674,0.832-5.01,2.496
	C184.173,123.229,183.505,125.18,183.505,127.418z"/>
<path fill="#FFFFFF" d="M216.146,141.578c-3.691,0-6.232-1.409-7.623-4.229c-1.029-2.072-1.543-5.266-1.543-9.579
	c0-0.883,0.025-2.2,0.078-3.949c0.051-1.749,0.078-3.065,0.078-3.948h-3.592l1.6-6.42h2.148v-4.595l5.809-3.012v7.607h5.219v6.63
	h-5.219l-0.188,11.047c0,1.146,0.484,2.094,1.455,2.837c0.877,0.676,1.863,1.011,2.953,1.011c1.119,0,1.967-0.135,2.545-0.403
	l-1.996,6.799C217.384,141.51,216.81,141.578,216.146,141.578z"/>
<g>
	<path fill="#FFFFFF" d="M175.395,87.494l31.082-17.284c0,0,6.121-19.187,5.91-28.716L175.395,87.494z"/>
	<path fill="#FFFFFF" d="M141.637,71.046c0,0,1.315-29.333,11.494-42.7l5.584,12.253C158.715,40.599,148.534,57.308,141.637,71.046z
		"/>
	<path fill="#FFFFFF" d="M98.744,64.292c0,0-4.957-8.275-5.311-23.101l2.832,1.724C96.266,42.915,97.328,60.844,98.744,64.292z"/>
	<path fill="#FFFFFF" d="M65.941,87.673L51.009,77.125l5.641-1.217C56.65,75.908,64.614,87.268,65.941,87.673z"/>
	<path fill="#FFFFFF" d="M50.592,127.18l-14.185-1.438l-5.226,4.317C31.181,130.06,47.605,128.619,50.592,127.18z"/>
	<path fill="#FFFFFF" d="M141.69,183.915c0,0-1.524,28.152,8.414,42.15l7.443-11.011
		C157.547,215.055,147.948,197.866,141.69,183.915z"/>
	<path fill="#FFFFFF" d="M64.728,167.14l-14.523,12.017l0.66-6.056C50.865,173.101,63.931,168.362,64.728,167.14z"/>
	<path fill="#FFFFFF" d="M98.758,188.756c0,0-4.957,8.633-5.311,24.101l2.832-1.799C96.28,211.058,97.342,192.352,98.758,188.756z"
		/>
	<path fill="#FFFFFF" d="M173.977,166.494l31.523,16.3c0,0,7.098,21.3,6.885,28.7L173.977,166.494z"/>
</g>
<g>
</g>
<g>
</g>
<g>
</g>
<g>
</g>
<g>
</g>
<g>
</g>
<g>
</g>
<g>
</g>
<g>
</g>
<g>
</g>
<g>
</g>
<g>
</g>
</svg>
